<?xml version="1.0" encoding="UTF-8" standalone="no"?>
<!-- Created with Inkscape (http://www.inkscape.org/) -->

<svg
   version="1.1"
   id="svg32"
   width="232"
   height="228"
   viewBox="0 0 232 228"
   sodipodi:docname="Z-test.svg"
   inkscape:version="1.2.1 (9c6d41e410, 2022-07-14)"
   xmlns:inkscape="http://www.inkscape.org/namespaces/inkscape"
   xmlns:sodipodi="http://sodipodi.sourceforge.net/DTD/sodipodi-0.dtd"
   xmlns="http://www.w3.org/2000/svg"
   xmlns:svg="http://www.w3.org/2000/svg">
  <defs
     id="defs36" />
  <sodipodi:namedview
     id="namedview34"
     pagecolor="#505050"
     bordercolor="#eeeeee"
     borderopacity="1"
     inkscape:showpageshadow="true"
     inkscape:pageopacity="0"
     inkscape:pagecheckerboard="true"
     inkscape:deskcolor="#505050"
     showgrid="false"
     inkscape:zoom="1.4142136"
     inkscape:cx="-76.721084"
     inkscape:cy="131.52186"
     inkscape:window-width="1882"
     inkscape:window-height="1080"
     inkscape:window-x="0"
     inkscape:window-y="0"
     inkscape:window-maximized="1"
     inkscape:current-layer="g38"
     inkscape:lockguides="true" />
  <g
     inkscape:groupmode="layer"
     inkscape:label="Image"
     id="g38">
    <path
       style="fill:#f2c744;stroke-width:1.33333;fill-opacity:1"
       d="m 43.974302,221.73705 c -5.08144,-4.27574 -6.30718,-10.26012 -3.8443,-18.76881 l 1.87687,-6.48415 -6.94521,-7.58616 C 8.8494024,160.26663 -0.55007759,120.9259 10.016652,84.074137 15.833022,63.789388 24.723502,49.522289 41.214892,34.008368 49.925122,25.814414 54.958282,22.356106 65.671112,17.20439 89.137512,5.9195846 88.290122,6.0287096 156.69219,5.4829286 c 67.61137,-0.539472 68.61009,-0.428067 70.88392,7.9070034 1.66431,6.100788 -0.29129,10.355017 -12.13128,26.39051 l -9.89519,13.401556 5.79026,11.651046 c 8.4255,16.953656 11.36638,29.558793 11.42848,48.984386 0.0391,12.23289 -0.6183,18.5114 -2.79216,26.66666 -16.39127,61.49184 -78.63016,95.86391 -139.574648,77.08151 l -6.75842,-2.08287 -9.10919,4.83402 c -10.78564,5.72366 -15.09187,6.02114 -20.55966,1.4203 z m 78.112088,-63.39534 c 35.79048,-30.14499 65.61572,-55.94596 66.27831,-57.33549 2.12986,-4.466583 -2.45839,-7.855463 -10.63564,-7.855463 -16.90666,0 -16.18476,-2.54441 10.76426,-37.939911 22.64867,-29.747308 24.77179,-33.816185 19.20078,-36.797698 -4.50956,-2.413448 -67.63798,-1.168756 -71.57666,1.411264 -3.86702,2.533073 -68.920798,86.281478 -70.214078,90.391628 -0.61274,1.94733 -0.22565,4.19293 1.06133,6.15712 1.77776,2.71319 3.36679,3.16946 12.97563,3.7257 11.56556,0.66952 14.553,2.35435 14.553,8.20743 0,1.45522 -9.37189,18.19248 -20.82644,37.19392 -24.47098,40.59383 -24.94799,41.4936 -23.84326,44.97432 2.06261,6.49871 6.16287,3.54064 72.262768,-52.13282 z"
       id="path202" />
  </g>
</svg>
